<svg xmlns="http://www.w3.org/2000/svg" viewBox="0 0 1024 1024" width="100%" height="100%">
  <style>
    /* Светлая тема (по умолчанию) — чёрный цвет */
    path {
      fill: #000000;
    }
    /* Тёмная тема — белый цвет */
    @media (prefers-color-scheme: dark) {
      path {
        fill: #ffffff;
      }
    }
  </style>
  <path d="
    M734.620972,115.258179 
    C765.298645,112.374886 791.558533,134.491714 793.232300,164.168213 
    C794.952698,194.669586 771.693237,220.019760 741.122375,220.692398 
    C733.926086,220.850754 726.885010,219.339859 720.165222,216.591156 
    C713.452637,213.845367 712.275330,214.202698 707.438843,219.678513 
    C700.778809,227.218933 695.294373,235.583466 690.585266,244.408112 
    C676.451416,270.894745 668.874634,299.121338 669.388306,329.244415 
    C669.759094,350.982788 674.775574,371.731842 683.729919,391.574677 
    C685.586731,395.689392 688.088684,394.556488 691.054626,393.731506 
    C711.714111,387.984955 730.339294,391.829987 745.149902,407.526581 
    C759.821777,423.076141 764.257019,441.753479 756.445251,462.088898 
    C748.579163,482.565552 733.278564,494.048004 711.327454,496.355316 
    C689.273071,498.673492 668.259338,485.325226 660.250671,467.560364 
    C658.825439,464.398834 656.838928,463.084167 653.343872,463.112366 
    C637.679993,463.238708 622.014404,463.218445 606.349976,463.137054 
    C601.700378,463.112915 598.038269,465.341919 594.480896,467.811981 
    C574.104736,481.960297 560.478394,501.427246 551.177490,524.028931 
    C540.340393,550.363953 536.433105,577.513367 543.165649,605.649536 
    C544.676270,611.962891 547.378113,617.443054 552.407227,621.821838 
    C556.545044,625.424500 560.257080,629.518433 564.131409,633.420898 
    C572.871582,642.224609 572.958618,654.791138 564.357056,663.264954 
    C556.214722,671.286560 543.698364,671.115479 535.148071,662.860168 
    C534.309082,662.050110 533.378479,661.297668 532.697449,660.366943 
    C522.948486,647.042603 508.799469,643.925049 493.508667,643.311523 
    C446.214844,641.413818 406.417755,657.674072 374.349426,692.545410 
    C369.275574,698.062683 364.947571,704.204712 360.601715,710.322998 
    C356.140228,716.604126 354.494202,723.449402 354.985046,731.070312 
    C355.178711,734.077576 356.103455,735.849060 358.844421,737.310242 
    C388.105682,752.908447 396.622986,788.615173 377.585510,815.419128 
    C365.195862,832.863220 340.986816,840.997803 320.737793,834.520874 
    C298.296997,827.342773 283.841827,808.403137 283.674652,785.949890 
    C283.511993,764.105225 293.040955,747.897095 312.186401,737.463928 
    C315.383026,735.722046 316.700012,733.645020 316.694977,729.997803 
    C316.603455,663.672241 316.593628,597.346680 316.640594,531.021057 
    C316.643799,526.528625 315.581970,523.631104 310.642365,522.216309 
    C277.389221,512.692200 253.728897,483.553101 250.625992,448.718170 
    C246.936066,407.292999 274.067139,368.419952 313.924774,358.381775 
    C341.179840,351.517578 366.073761,356.961731 388.476959,373.769440 
    C391.056305,375.704559 392.831329,375.820892 395.519165,374.042603 
    C472.497314,323.113281 549.747803,272.600006 627.290894,222.534332 
    C646.883972,209.884048 666.384766,197.090805 685.987732,184.455963 
    C688.661743,182.732437 689.907043,181.007263 689.337158,177.557571 
    C684.212585,146.532623 703.106934,120.423462 734.620972,115.258179 
    M625.785889,270.330505 
    C611.739685,279.591461 597.843384,289.091553 583.590149,298.022064 
    C575.277832,303.230225 569.788147,310.449463 565.938477,319.124023 
    C557.444214,338.264038 557.617371,357.965057 562.937317,377.782837 
    C567.154846,393.494141 574.529358,407.522186 586.631348,418.742859 
    C590.443970,422.277863 594.723511,424.083496 600.149414,424.000305 
    C617.141235,423.739746 634.139343,423.903625 651.134888,423.858521 
    C660.184448,423.834503 664.129028,417.732086 660.221313,409.487549 
    C647.546631,382.746063 640.546204,354.689026 640.869202,325.027130 
    C641.121277,301.878052 645.047607,279.336487 653.387207,257.643951 
    C653.923828,256.248108 655.309326,254.793808 653.461975,252.382080 
    C644.447937,258.238281 635.425659,264.099823 625.785889,270.330505 
    M355.110443,567.500000 
    C355.110443,601.528503 355.110443,635.556946 355.110443,669.585449 
    C355.488861,669.798157 355.867279,670.010864 356.245728,670.223572 
    C392.808929,633.218994 437.019989,614.775269 489.728546,615.491943 
    C488.619934,614.012085 488.213257,613.307129 487.657715,612.750854 
    C454.475952,579.523743 421.270508,546.320251 388.114136,513.067810 
    C385.861847,510.809052 383.916138,511.145477 381.512451,512.708984 
    C374.774017,517.092041 367.508911,520.386108 359.751648,522.512146 
    C356.328552,523.450256 354.988159,525.450500 355.031921,529.032654 
    C355.184418,541.520203 355.104431,554.010681 355.110443,567.500000 
    M494.500000,463.189178 
    C472.015320,463.187408 449.530670,463.190857 427.045990,463.181152 
    C418.580444,463.177490 418.597473,463.169800 415.778473,470.903687 
    C415.038147,472.934784 414.329956,475.008911 413.301178,476.896637 
    C411.556305,480.098297 412.464996,482.456085 414.900055,484.869202 
    C445.171722,514.867920 475.385101,544.925415 505.647858,574.933105 
    C507.113892,576.386780 508.292236,578.372314 511.470428,578.758911 
    C512.101196,535.624390 526.564636,497.601044 554.566650,464.670074 
    C554.275024,464.177185 553.983398,463.684326 553.691772,463.191437 
    C534.294556,463.191437 514.897278,463.191437 494.500000,463.189178 
    M531.637085,367.639435 
    C529.775513,356.394531 531.183411,345.030640 531.549072,333.876007 
    C528.379211,333.434235 526.938354,334.690369 525.437439,335.674957 
    C491.752319,357.771240 458.083771,379.892883 424.400604,401.992188 
    C414.476074,408.503601 414.565735,408.448730 417.783234,419.629028 
    C418.677032,422.734924 420.184479,423.939178 423.383850,423.932617 
    C464.015259,423.849030 504.646851,423.880768 545.278259,423.795929 
    C551.063110,423.783844 551.693787,422.330658 548.704590,417.207794 
    C539.881409,402.086517 534.077576,385.907837 531.637085,367.639435 
    z"/>
</svg>